<mxfile host="app.diagrams.net" modified="2023-12-14T14:28:46.878Z" agent="Mozilla/5.0 (Windows NT 10.0; Win64; x64) AppleWebKit/537.36 (KHTML, like Gecko) Chrome/120.0.0.0 Safari/537.36" etag="rcYS3DrSYoSvYaKkAyPS" version="22.1.8" type="github">
  <diagram id="C5RBs43oDa-KdzZeNtuy" name="Page-1">
    <mxGraphModel dx="1434" dy="818" grid="1" gridSize="10" guides="1" tooltips="1" connect="1" arrows="1" fold="1" page="1" pageScale="1" pageWidth="827" pageHeight="1169" math="0" shadow="0">
      <root>
        <mxCell id="WIyWlLk6GJQsqaUBKTNV-0" />
        <mxCell id="WIyWlLk6GJQsqaUBKTNV-1" parent="WIyWlLk6GJQsqaUBKTNV-0" />
        <mxCell id="WIyWlLk6GJQsqaUBKTNV-3" value="&lt;div style=&quot;text-align: left;&quot;&gt;&lt;span style=&quot;background-color: initial;&quot;&gt;Récupération des recettes dans le json.&lt;/span&gt;&lt;/div&gt;&lt;div style=&quot;text-align: left;&quot;&gt;&lt;br&gt;&lt;/div&gt;&lt;div style=&quot;text-align: left;&quot;&gt;&lt;span style=&quot;background-color: initial;&quot;&gt;Initialisation :&lt;/span&gt;&lt;/div&gt;&lt;div style=&quot;text-align: left;&quot;&gt;&lt;span style=&quot;background-color: initial;&quot;&gt;&lt;span style=&quot;white-space: pre;&quot;&gt;&#x9;&lt;/span&gt;&lt;span style=&quot;white-space: pre;&quot;&gt;&#x9;&amp;nbsp;&lt;/span&gt;&amp;nbsp; &amp;nbsp;- Filtres,&lt;/span&gt;&lt;/div&gt;&lt;div style=&quot;text-align: left;&quot;&gt;&lt;span style=&quot;background-color: initial;&quot;&gt;&lt;span style=&quot;white-space: pre;&quot;&gt;&#x9;&lt;/span&gt;&lt;span style=&quot;white-space: pre;&quot;&gt;&#x9;&lt;/span&gt;&amp;nbsp; &amp;nbsp; - SearchBar,&lt;/span&gt;&lt;/div&gt;&lt;div style=&quot;text-align: left;&quot;&gt;&lt;span style=&quot;background-color: initial;&quot;&gt;&amp;nbsp; &amp;nbsp; &lt;span style=&quot;white-space: pre;&quot;&gt;&#x9;&lt;span style=&quot;white-space: pre;&quot;&gt;&#x9;&lt;/span&gt; &lt;/span&gt;&amp;nbsp; &amp;nbsp;- Création des cartes de recettes&lt;/span&gt;&lt;/div&gt;" style="rounded=1;whiteSpace=wrap;html=1;fontSize=12;glass=0;strokeWidth=1;shadow=0;" parent="WIyWlLk6GJQsqaUBKTNV-1" vertex="1">
          <mxGeometry x="280" y="20" width="281" height="110" as="geometry" />
        </mxCell>
        <mxCell id="qMH8XspB-D8r9Ep7mu-I-17" style="edgeStyle=orthogonalEdgeStyle;rounded=0;orthogonalLoop=1;jettySize=auto;html=1;exitX=1;exitY=0.5;exitDx=0;exitDy=0;entryX=0.325;entryY=0.017;entryDx=0;entryDy=0;entryPerimeter=0;" edge="1" parent="WIyWlLk6GJQsqaUBKTNV-1" source="qMH8XspB-D8r9Ep7mu-I-3" target="qMH8XspB-D8r9Ep7mu-I-11">
          <mxGeometry relative="1" as="geometry">
            <mxPoint x="640" y="215" as="targetPoint" />
          </mxGeometry>
        </mxCell>
        <mxCell id="qMH8XspB-D8r9Ep7mu-I-83" style="edgeStyle=orthogonalEdgeStyle;rounded=0;orthogonalLoop=1;jettySize=auto;html=1;entryX=0;entryY=0.5;entryDx=0;entryDy=0;" edge="1" parent="WIyWlLk6GJQsqaUBKTNV-1" target="qMH8XspB-D8r9Ep7mu-I-3">
          <mxGeometry relative="1" as="geometry">
            <mxPoint x="260" y="200" as="targetPoint" />
            <mxPoint x="30" y="220" as="sourcePoint" />
            <Array as="points">
              <mxPoint x="30" y="215" />
            </Array>
          </mxGeometry>
        </mxCell>
        <mxCell id="qMH8XspB-D8r9Ep7mu-I-3" value="Recherche / tri par l&#39;utilisateur" style="rounded=1;whiteSpace=wrap;html=1;" vertex="1" parent="WIyWlLk6GJQsqaUBKTNV-1">
          <mxGeometry x="280" y="200" width="280" height="30" as="geometry" />
        </mxCell>
        <mxCell id="qMH8XspB-D8r9Ep7mu-I-5" value="" style="edgeStyle=elbowEdgeStyle;elbow=horizontal;endArrow=classic;html=1;curved=0;rounded=0;endSize=8;startSize=8;entryX=0.5;entryY=0;entryDx=0;entryDy=0;" edge="1" parent="WIyWlLk6GJQsqaUBKTNV-1" source="WIyWlLk6GJQsqaUBKTNV-3" target="qMH8XspB-D8r9Ep7mu-I-3">
          <mxGeometry width="50" height="50" relative="1" as="geometry">
            <mxPoint x="370" y="200" as="sourcePoint" />
            <mxPoint x="420" y="150" as="targetPoint" />
            <Array as="points" />
          </mxGeometry>
        </mxCell>
        <mxCell id="qMH8XspB-D8r9Ep7mu-I-27" style="edgeStyle=orthogonalEdgeStyle;rounded=0;orthogonalLoop=1;jettySize=auto;html=1;exitX=0.5;exitY=1;exitDx=0;exitDy=0;entryX=0.5;entryY=0;entryDx=0;entryDy=0;" edge="1" parent="WIyWlLk6GJQsqaUBKTNV-1" source="qMH8XspB-D8r9Ep7mu-I-7" target="qMH8XspB-D8r9Ep7mu-I-25">
          <mxGeometry relative="1" as="geometry" />
        </mxCell>
        <mxCell id="qMH8XspB-D8r9Ep7mu-I-74" style="edgeStyle=orthogonalEdgeStyle;rounded=0;orthogonalLoop=1;jettySize=auto;html=1;exitX=0.086;exitY=1;exitDx=0;exitDy=0;exitPerimeter=0;entryX=0.5;entryY=0;entryDx=0;entryDy=0;" edge="1" parent="WIyWlLk6GJQsqaUBKTNV-1" source="qMH8XspB-D8r9Ep7mu-I-3" target="qMH8XspB-D8r9Ep7mu-I-7">
          <mxGeometry relative="1" as="geometry">
            <mxPoint x="140" y="260" as="targetPoint" />
          </mxGeometry>
        </mxCell>
        <mxCell id="qMH8XspB-D8r9Ep7mu-I-7" value="" style="rounded=1;whiteSpace=wrap;html=1;" vertex="1" parent="WIyWlLk6GJQsqaUBKTNV-1">
          <mxGeometry x="80" y="270" width="120" height="60" as="geometry" />
        </mxCell>
        <mxCell id="qMH8XspB-D8r9Ep7mu-I-8" value="Recherche" style="text;html=1;strokeColor=none;fillColor=none;align=center;verticalAlign=middle;whiteSpace=wrap;rounded=0;" vertex="1" parent="WIyWlLk6GJQsqaUBKTNV-1">
          <mxGeometry x="110" y="285" width="60" height="30" as="geometry" />
        </mxCell>
        <mxCell id="qMH8XspB-D8r9Ep7mu-I-9" value="1er filtre" style="rounded=1;whiteSpace=wrap;html=1;" vertex="1" parent="WIyWlLk6GJQsqaUBKTNV-1">
          <mxGeometry x="270" y="270" width="120" height="60" as="geometry" />
        </mxCell>
        <mxCell id="qMH8XspB-D8r9Ep7mu-I-35" style="edgeStyle=orthogonalEdgeStyle;rounded=0;orthogonalLoop=1;jettySize=auto;html=1;exitX=0.5;exitY=1;exitDx=0;exitDy=0;entryX=0.5;entryY=0;entryDx=0;entryDy=0;" edge="1" parent="WIyWlLk6GJQsqaUBKTNV-1" source="qMH8XspB-D8r9Ep7mu-I-10" target="qMH8XspB-D8r9Ep7mu-I-29">
          <mxGeometry relative="1" as="geometry" />
        </mxCell>
        <mxCell id="qMH8XspB-D8r9Ep7mu-I-10" value="2éme filtre" style="rounded=1;whiteSpace=wrap;html=1;" vertex="1" parent="WIyWlLk6GJQsqaUBKTNV-1">
          <mxGeometry x="480" y="270" width="120" height="60" as="geometry" />
        </mxCell>
        <mxCell id="qMH8XspB-D8r9Ep7mu-I-11" value="3éme filtre" style="rounded=1;whiteSpace=wrap;html=1;" vertex="1" parent="WIyWlLk6GJQsqaUBKTNV-1">
          <mxGeometry x="660" y="270" width="120" height="60" as="geometry" />
        </mxCell>
        <mxCell id="qMH8XspB-D8r9Ep7mu-I-14" style="edgeStyle=orthogonalEdgeStyle;rounded=0;orthogonalLoop=1;jettySize=auto;html=1;exitX=0.25;exitY=1;exitDx=0;exitDy=0;" edge="1" parent="WIyWlLk6GJQsqaUBKTNV-1" source="qMH8XspB-D8r9Ep7mu-I-3">
          <mxGeometry relative="1" as="geometry">
            <mxPoint x="310" y="270" as="targetPoint" />
            <Array as="points">
              <mxPoint x="350" y="250" />
              <mxPoint x="310" y="250" />
              <mxPoint x="310" y="270" />
            </Array>
          </mxGeometry>
        </mxCell>
        <mxCell id="qMH8XspB-D8r9Ep7mu-I-15" style="edgeStyle=orthogonalEdgeStyle;rounded=0;orthogonalLoop=1;jettySize=auto;html=1;exitX=0.75;exitY=1;exitDx=0;exitDy=0;entryX=0.433;entryY=-0.017;entryDx=0;entryDy=0;entryPerimeter=0;" edge="1" parent="WIyWlLk6GJQsqaUBKTNV-1" source="qMH8XspB-D8r9Ep7mu-I-3" target="qMH8XspB-D8r9Ep7mu-I-10">
          <mxGeometry relative="1" as="geometry" />
        </mxCell>
        <mxCell id="qMH8XspB-D8r9Ep7mu-I-21" value="Affiche les nouvelles cartes" style="rounded=1;whiteSpace=wrap;html=1;" vertex="1" parent="WIyWlLk6GJQsqaUBKTNV-1">
          <mxGeometry x="140" y="870" width="220" height="100" as="geometry" />
        </mxCell>
        <mxCell id="qMH8XspB-D8r9Ep7mu-I-22" value="Affichage du message&lt;br&gt;&amp;nbsp;&lt;br&gt;&quot;Aucune recette n&#39;a été trouvée, veuillez essayer à nouveau.&lt;span style=&quot;background-color: initial;&quot;&gt;&quot;&lt;/span&gt;" style="rounded=1;whiteSpace=wrap;html=1;" vertex="1" parent="WIyWlLk6GJQsqaUBKTNV-1">
          <mxGeometry x="482" y="870" width="266" height="100" as="geometry" />
        </mxCell>
        <mxCell id="qMH8XspB-D8r9Ep7mu-I-23" value="Renvoi un tableau &quot;filtredRecipes&quot;" style="rounded=1;whiteSpace=wrap;html=1;" vertex="1" parent="WIyWlLk6GJQsqaUBKTNV-1">
          <mxGeometry x="360" y="620" width="160" height="60" as="geometry" />
        </mxCell>
        <mxCell id="qMH8XspB-D8r9Ep7mu-I-25" value="&lt;font style=&quot;font-size: 12px;&quot;&gt;Retourne&amp;nbsp;&lt;span style=&quot;box-sizing: inherit; color: rgb(37, 37, 37); font-family: &amp;quot;Open Sans&amp;quot;, sans-serif; cursor: auto;&quot; id=&quot;output-word~0~1&quot; data-segment-position=&quot;1&quot;&gt;un &lt;/span&gt;&lt;span style=&quot;box-sizing: inherit; color: rgb(37, 37, 37); font-family: &amp;quot;Open Sans&amp;quot;, sans-serif; cursor: auto;&quot; id=&quot;output-word~0~2&quot; data-segment-position=&quot;2&quot;&gt;texte &lt;/span&gt;&lt;span style=&quot;box-sizing: inherit; color: rgb(37, 37, 37); font-family: &amp;quot;Open Sans&amp;quot;, sans-serif; cursor: auto;&quot; id=&quot;output-word~0~3&quot; data-segment-position=&quot;3&quot;&gt;ou&amp;nbsp;&amp;nbsp;&lt;/span&gt;&lt;span style=&quot;box-sizing: inherit; color: rgb(37, 37, 37); font-family: &amp;quot;Open Sans&amp;quot;, sans-serif; cursor: auto;&quot; id=&quot;output-word~0~4&quot; data-segment-position=&quot;4&quot;&gt;&quot; &quot;&lt;/span&gt;&lt;/font&gt;" style="rounded=1;whiteSpace=wrap;html=1;align=center;" vertex="1" parent="WIyWlLk6GJQsqaUBKTNV-1">
          <mxGeometry x="50" y="390" width="180" height="110" as="geometry" />
        </mxCell>
        <mxCell id="qMH8XspB-D8r9Ep7mu-I-28" value="&lt;div style=&quot;text-indent: -25.6667px;&quot;&gt;&lt;br&gt;&lt;/div&gt;" style="rounded=1;whiteSpace=wrap;html=1;" vertex="1" parent="WIyWlLk6GJQsqaUBKTNV-1">
          <mxGeometry x="250" y="390" width="180" height="110" as="geometry" />
        </mxCell>
        <mxCell id="qMH8XspB-D8r9Ep7mu-I-29" value="" style="rounded=1;whiteSpace=wrap;html=1;" vertex="1" parent="WIyWlLk6GJQsqaUBKTNV-1">
          <mxGeometry x="450" y="390" width="180" height="110" as="geometry" />
        </mxCell>
        <mxCell id="qMH8XspB-D8r9Ep7mu-I-30" value="" style="rounded=1;whiteSpace=wrap;html=1;" vertex="1" parent="WIyWlLk6GJQsqaUBKTNV-1">
          <mxGeometry x="640" y="390" width="180" height="110" as="geometry" />
        </mxCell>
        <mxCell id="qMH8XspB-D8r9Ep7mu-I-31" value="Retourne un ingrédient ou &quot; &quot;" style="text;html=1;strokeColor=none;fillColor=none;align=center;verticalAlign=middle;whiteSpace=wrap;rounded=0;" vertex="1" parent="WIyWlLk6GJQsqaUBKTNV-1">
          <mxGeometry x="260" y="415" width="160" height="60" as="geometry" />
        </mxCell>
        <mxCell id="qMH8XspB-D8r9Ep7mu-I-32" value="Retourne un appareil ou &quot; &quot;" style="text;html=1;strokeColor=none;fillColor=none;align=center;verticalAlign=middle;whiteSpace=wrap;rounded=0;" vertex="1" parent="WIyWlLk6GJQsqaUBKTNV-1">
          <mxGeometry x="460" y="410" width="160" height="70" as="geometry" />
        </mxCell>
        <mxCell id="qMH8XspB-D8r9Ep7mu-I-33" value="Retourne un ustensile ou &quot; &quot;" style="text;html=1;strokeColor=none;fillColor=none;align=center;verticalAlign=middle;whiteSpace=wrap;rounded=0;" vertex="1" parent="WIyWlLk6GJQsqaUBKTNV-1">
          <mxGeometry x="660" y="405" width="160" height="80" as="geometry" />
        </mxCell>
        <mxCell id="qMH8XspB-D8r9Ep7mu-I-34" style="edgeStyle=orthogonalEdgeStyle;rounded=0;orthogonalLoop=1;jettySize=auto;html=1;exitX=0.5;exitY=1;exitDx=0;exitDy=0;entryX=0.444;entryY=0.018;entryDx=0;entryDy=0;entryPerimeter=0;" edge="1" parent="WIyWlLk6GJQsqaUBKTNV-1" source="qMH8XspB-D8r9Ep7mu-I-9" target="qMH8XspB-D8r9Ep7mu-I-28">
          <mxGeometry relative="1" as="geometry" />
        </mxCell>
        <mxCell id="qMH8XspB-D8r9Ep7mu-I-37" style="edgeStyle=orthogonalEdgeStyle;rounded=0;orthogonalLoop=1;jettySize=auto;html=1;exitX=0.5;exitY=1;exitDx=0;exitDy=0;entryX=0.444;entryY=0.027;entryDx=0;entryDy=0;entryPerimeter=0;" edge="1" parent="WIyWlLk6GJQsqaUBKTNV-1" source="qMH8XspB-D8r9Ep7mu-I-11" target="qMH8XspB-D8r9Ep7mu-I-30">
          <mxGeometry relative="1" as="geometry" />
        </mxCell>
        <mxCell id="qMH8XspB-D8r9Ep7mu-I-45" value="" style="endArrow=none;html=1;rounded=0;edgeStyle=orthogonalEdgeStyle;" edge="1" parent="WIyWlLk6GJQsqaUBKTNV-1">
          <mxGeometry width="50" height="50" relative="1" as="geometry">
            <mxPoint x="540" y="550" as="sourcePoint" />
            <mxPoint x="539.5" y="500" as="targetPoint" />
          </mxGeometry>
        </mxCell>
        <mxCell id="qMH8XspB-D8r9Ep7mu-I-46" value="" style="endArrow=none;html=1;rounded=0;edgeStyle=orthogonalEdgeStyle;" edge="1" parent="WIyWlLk6GJQsqaUBKTNV-1">
          <mxGeometry width="50" height="50" relative="1" as="geometry">
            <mxPoint x="340" y="550" as="sourcePoint" />
            <mxPoint x="339.5" y="500" as="targetPoint" />
            <Array as="points">
              <mxPoint x="340" y="526" />
              <mxPoint x="340" y="526" />
            </Array>
          </mxGeometry>
        </mxCell>
        <mxCell id="qMH8XspB-D8r9Ep7mu-I-48" value="" style="endArrow=none;html=1;rounded=0;edgeStyle=orthogonalEdgeStyle;" edge="1" parent="WIyWlLk6GJQsqaUBKTNV-1">
          <mxGeometry width="50" height="50" relative="1" as="geometry">
            <mxPoint x="430" y="550" as="sourcePoint" />
            <mxPoint x="744.75" y="500" as="targetPoint" />
          </mxGeometry>
        </mxCell>
        <mxCell id="qMH8XspB-D8r9Ep7mu-I-49" value="" style="endArrow=none;html=1;rounded=0;edgeStyle=orthogonalEdgeStyle;" edge="1" parent="WIyWlLk6GJQsqaUBKTNV-1">
          <mxGeometry width="50" height="50" relative="1" as="geometry">
            <mxPoint x="430" y="550" as="sourcePoint" />
            <mxPoint x="140" y="500" as="targetPoint" />
          </mxGeometry>
        </mxCell>
        <mxCell id="qMH8XspB-D8r9Ep7mu-I-55" value="" style="edgeStyle=segmentEdgeStyle;endArrow=classic;html=1;curved=0;rounded=0;endSize=8;startSize=8;" edge="1" parent="WIyWlLk6GJQsqaUBKTNV-1">
          <mxGeometry width="50" height="50" relative="1" as="geometry">
            <mxPoint x="440" y="550" as="sourcePoint" />
            <mxPoint x="440" y="620" as="targetPoint" />
          </mxGeometry>
        </mxCell>
        <mxCell id="qMH8XspB-D8r9Ep7mu-I-88" value="&lt;font color=&quot;#ff0000&quot; style=&quot;font-size: 12px;&quot;&gt;updateFiltredRecipes()&lt;/font&gt;" style="edgeLabel;html=1;align=center;verticalAlign=middle;resizable=0;points=[];" vertex="1" connectable="0" parent="qMH8XspB-D8r9Ep7mu-I-55">
          <mxGeometry x="-0.1714" y="-1" relative="1" as="geometry">
            <mxPoint as="offset" />
          </mxGeometry>
        </mxCell>
        <mxCell id="qMH8XspB-D8r9Ep7mu-I-57" value="" style="edgeStyle=elbowEdgeStyle;elbow=vertical;endArrow=classic;html=1;curved=0;rounded=0;endSize=8;startSize=8;entryX=0.5;entryY=0;entryDx=0;entryDy=0;" edge="1" parent="WIyWlLk6GJQsqaUBKTNV-1" target="qMH8XspB-D8r9Ep7mu-I-59">
          <mxGeometry width="50" height="50" relative="1" as="geometry">
            <mxPoint x="361" y="650" as="sourcePoint" />
            <mxPoint x="270" y="710" as="targetPoint" />
            <Array as="points">
              <mxPoint x="310" y="650" />
            </Array>
          </mxGeometry>
        </mxCell>
        <mxCell id="qMH8XspB-D8r9Ep7mu-I-59" value="&lt;font style=&quot;font-size: 12px;&quot;&gt;Si &lt;span style=&quot;box-sizing: inherit; font-family: &amp;quot;Open Sans&amp;quot;, sans-serif; text-align: start; cursor: auto;&quot; id=&quot;output-word~0~1&quot; data-segment-position=&quot;1&quot;&gt;des &lt;/span&gt;&lt;span style=&quot;box-sizing: inherit; font-family: &amp;quot;Open Sans&amp;quot;, sans-serif; text-align: start; cursor: auto;&quot; id=&quot;output-word~0~2&quot; data-segment-position=&quot;2&quot;&gt;recettes &lt;/span&gt;&lt;span style=&quot;box-sizing: inherit; font-family: &amp;quot;Open Sans&amp;quot;, sans-serif; text-align: start; cursor: auto;&quot; id=&quot;output-word~0~3&quot; data-segment-position=&quot;3&quot;&gt;sont &lt;/span&gt;&lt;span style=&quot;box-sizing: inherit; font-family: &amp;quot;Open Sans&amp;quot;, sans-serif; text-align: start; cursor: auto;&quot; id=&quot;output-word~0~4&quot; data-segment-position=&quot;4&quot;&gt;disponibles&lt;/span&gt;&lt;/font&gt;" style="rounded=1;whiteSpace=wrap;html=1;" vertex="1" parent="WIyWlLk6GJQsqaUBKTNV-1">
          <mxGeometry x="210" y="720" width="120" height="60" as="geometry" />
        </mxCell>
        <mxCell id="qMH8XspB-D8r9Ep7mu-I-65" style="edgeStyle=orthogonalEdgeStyle;rounded=0;orthogonalLoop=1;jettySize=auto;html=1;exitX=0.5;exitY=1;exitDx=0;exitDy=0;entryX=0.5;entryY=0;entryDx=0;entryDy=0;" edge="1" parent="WIyWlLk6GJQsqaUBKTNV-1" source="qMH8XspB-D8r9Ep7mu-I-61" target="qMH8XspB-D8r9Ep7mu-I-22">
          <mxGeometry relative="1" as="geometry" />
        </mxCell>
        <mxCell id="qMH8XspB-D8r9Ep7mu-I-61" value="Aucune recette trouvée" style="rounded=1;whiteSpace=wrap;html=1;" vertex="1" parent="WIyWlLk6GJQsqaUBKTNV-1">
          <mxGeometry x="550" y="720" width="130" height="60" as="geometry" />
        </mxCell>
        <mxCell id="qMH8XspB-D8r9Ep7mu-I-62" value="" style="edgeStyle=segmentEdgeStyle;endArrow=classic;html=1;curved=0;rounded=0;endSize=8;startSize=8;exitX=1;exitY=0.5;exitDx=0;exitDy=0;entryX=0.558;entryY=-0.067;entryDx=0;entryDy=0;entryPerimeter=0;" edge="1" parent="WIyWlLk6GJQsqaUBKTNV-1" source="qMH8XspB-D8r9Ep7mu-I-23" target="qMH8XspB-D8r9Ep7mu-I-61">
          <mxGeometry width="50" height="50" relative="1" as="geometry">
            <mxPoint x="390" y="690" as="sourcePoint" />
            <mxPoint x="440" y="640" as="targetPoint" />
          </mxGeometry>
        </mxCell>
        <mxCell id="qMH8XspB-D8r9Ep7mu-I-71" style="edgeStyle=orthogonalEdgeStyle;rounded=0;orthogonalLoop=1;jettySize=auto;html=1;exitX=0.5;exitY=1;exitDx=0;exitDy=0;entryX=0.591;entryY=-0.01;entryDx=0;entryDy=0;entryPerimeter=0;" edge="1" parent="WIyWlLk6GJQsqaUBKTNV-1" source="qMH8XspB-D8r9Ep7mu-I-59" target="qMH8XspB-D8r9Ep7mu-I-21">
          <mxGeometry relative="1" as="geometry" />
        </mxCell>
        <mxCell id="qMH8XspB-D8r9Ep7mu-I-89" value="&lt;font color=&quot;#ff0000&quot; style=&quot;font-size: 12px;&quot;&gt;updateFiltres(filteredRecipes)&lt;/font&gt;" style="edgeLabel;html=1;align=center;verticalAlign=middle;resizable=0;points=[];" vertex="1" connectable="0" parent="qMH8XspB-D8r9Ep7mu-I-71">
          <mxGeometry x="-0.5281" relative="1" as="geometry">
            <mxPoint as="offset" />
          </mxGeometry>
        </mxCell>
        <mxCell id="qMH8XspB-D8r9Ep7mu-I-90" value="&lt;font color=&quot;#ff0000&quot; style=&quot;font-size: 12px;&quot;&gt;createCards(filtredRecipes)&lt;/font&gt;" style="edgeLabel;html=1;align=center;verticalAlign=middle;resizable=0;points=[];" vertex="1" connectable="0" parent="qMH8XspB-D8r9Ep7mu-I-71">
          <mxGeometry x="0.1461" relative="1" as="geometry">
            <mxPoint as="offset" />
          </mxGeometry>
        </mxCell>
        <mxCell id="qMH8XspB-D8r9Ep7mu-I-82" value="" style="endArrow=none;html=1;rounded=0;edgeStyle=orthogonalEdgeStyle;exitX=0;exitY=0.5;exitDx=0;exitDy=0;" edge="1" parent="WIyWlLk6GJQsqaUBKTNV-1" source="qMH8XspB-D8r9Ep7mu-I-21">
          <mxGeometry width="50" height="50" relative="1" as="geometry">
            <mxPoint x="40" y="910" as="sourcePoint" />
            <mxPoint x="30" y="220" as="targetPoint" />
            <Array as="points">
              <mxPoint x="31" y="920" />
            </Array>
          </mxGeometry>
        </mxCell>
        <mxCell id="qMH8XspB-D8r9Ep7mu-I-87" value="Nouvelle&lt;br&gt;Recherche" style="edgeLabel;html=1;align=center;verticalAlign=middle;resizable=0;points=[];" vertex="1" connectable="0" parent="qMH8XspB-D8r9Ep7mu-I-82">
          <mxGeometry x="0.1397" y="-4" relative="1" as="geometry">
            <mxPoint as="offset" />
          </mxGeometry>
        </mxCell>
      </root>
    </mxGraphModel>
  </diagram>
</mxfile>
